# xmcd CD database file
#
# Track frame offsets:
#	150
#	14408
#	43605
#
# Disc length: 809 seconds
#
# Revision: 6
# Processed by: cddbd v1.5.2PL0 Copyright (c) Steve Scherf et al.
# Submitted via: CDex 1.51
#
DISCID=1c032703
DTITLE=Atomic Kitten - The Last Goodbye
DYEAR=2003
DGENRE=Pop
TTITLE0=The Last Goodbye
TTITLE1=The Last Goodbye (Soda Club Mix)
TTITLE2=For Once In My Life
EXTD=YEAR: 2003
EXTT0=
EXTT1=
EXTT2=
PLAYORDER=
